<?xml version="1.0" encoding="UTF-8" standalone="no" ?>
<!DOCTYPE svg PUBLIC "-//W3C//DTD SVG 1.1//EN" "http://www.w3.org/Graphics/SVG/1.1/DTD/svg11.dtd">
<svg xmlns="http://www.w3.org/2000/svg" xmlns:xlink="http://www.w3.org/1999/xlink" version="1.1" width="1080" height="1080" viewBox="0 0 1080 1080" xml:space="preserve">
<desc>Created with Fabric.js 5.2.4</desc>
<defs>
</defs>
<g transform="matrix(1 0 0 1 540 540)" id="fd2fdd58-cb97-4122-a6df-8bf0cc5813c0"  >
<rect style="stroke: none; stroke-width: 1; stroke-dasharray: none; stroke-linecap: butt; stroke-dashoffset: 0; stroke-linejoin: miter; stroke-miterlimit: 4; fill: rgb(255,255,255); fill-rule: nonzero; opacity: 1; visibility: hidden;" vector-effect="non-scaling-stroke"  x="-540" y="-540" rx="0" ry="0" width="1080" height="1080" />
</g>
<g transform="matrix(1 0 0 1 540 540)" id="5e0470ab-d2e8-46b4-8e89-1b04cb8f1abb"  >
</g>
<g transform="matrix(1.62 0 0 1.62 539.09 539.09)"  >
<g style="" vector-effect="non-scaling-stroke"   >
		<g transform="matrix(33.33 0 0 33.33 0 0)"  >
<path style="stroke: none; stroke-width: 1; stroke-dasharray: none; stroke-linecap: butt; stroke-dashoffset: 0; stroke-linejoin: miter; stroke-miterlimit: 4; fill: rgb(28,39,76); fill-rule: nonzero; opacity: 0.5;" vector-effect="non-scaling-stroke"  transform=" translate(-12, -12)" d="M 22 12 C 22 17.5228 17.5228 22 12 22 C 6.47715 22 2 17.5228 2 12 C 2 6.47715 6.47715 2 12 2 C 17.5228 2 22 6.47715 22 12 Z" stroke-linecap="round" />
</g>
		<g transform="matrix(33.33 0 0 33.33 -83.33 0)"  >
<path style="stroke: none; stroke-width: 1; stroke-dasharray: none; stroke-linecap: butt; stroke-dashoffset: 0; stroke-linejoin: miter; stroke-miterlimit: 4; fill: rgb(28,39,76); fill-rule: nonzero; opacity: 1;" vector-effect="non-scaling-stroke"  transform=" translate(-9.5, -12)" d="M 8.07612 8.61732 C 8 8.80109 8 9.03406 8 9.5 L 8 14.5 C 8 14.9659 8 15.1989 8.07612 15.3827 C 8.17761 15.6277 8.37229 15.8224 8.61732 15.9239 C 8.80109 16 9.03406 16 9.5 16 C 9.96594 16 10.1989 16 10.3827 15.9239 C 10.6277 15.8224 10.8224 15.6277 10.9239 15.3827 C 11 15.1989 11 14.9659 11 14.5 L 11 9.5 C 11 9.03406 11 8.80109 10.9239 8.61732 C 10.8224 8.37229 10.6277 8.17761 10.3827 8.07612 C 10.1989 8 9.96594 8 9.5 8 C 9.03406 8 8.80109 8 8.61732 8.07612 C 8.37229 8.17761 8.17761 8.37229 8.07612 8.61732 Z" stroke-linecap="round" />
</g>
		<g transform="matrix(33.33 0 0 33.33 83.33 0)"  >
<path style="stroke: none; stroke-width: 1; stroke-dasharray: none; stroke-linecap: butt; stroke-dashoffset: 0; stroke-linejoin: miter; stroke-miterlimit: 4; fill: rgb(28,39,76); fill-rule: nonzero; opacity: 1;" vector-effect="non-scaling-stroke"  transform=" translate(-14.5, -12)" d="M 13.0761 8.61732 C 13 8.80109 13 9.03406 13 9.5 L 13 14.5 C 13 14.9659 13 15.1989 13.0761 15.3827 C 13.1776 15.6277 13.3723 15.8224 13.6173 15.9239 C 13.8011 16 14.0341 16 14.5 16 C 14.9659 16 15.1989 16 15.3827 15.9239 C 15.6277 15.8224 15.8224 15.6277 15.9239 15.3827 C 16 15.1989 16 14.9659 16 14.5 L 16 9.5 C 16 9.03406 16 8.80109 15.9239 8.61732 C 15.8224 8.37229 15.6277 8.17761 15.3827 8.07612 C 15.1989 8 14.9659 8 14.5 8 C 14.0341 8 13.8011 8 13.6173 8.07612 C 13.3723 8.17761 13.1776 8.37229 13.0761 8.61732 Z" stroke-linecap="round" />
</g>
</g>
</g>
</svg>